<svg width="40" height="40" viewBox="0 0 40 40" fill="none" xmlns="http://www.w3.org/2000/svg"><path d="M34.6 12.2H22.1c6.9-3.4 7.5-5.6 7.2-6.8-.6-2-2.8-3.5-5-2.7-2.8 1-3.5 5.2-4.3 8.2-1-3-1.9-6.9-4-8.9a3.7 3.7 0 0 0-3-1c-2 .2-4.9 2.7-3.7 5.5 1.2 2.7 4.9 4.4 7.3 5.8H5.4c-.8 0-1.4.6-1.4 1.4v5.6c0 .9.7 1.5 1.4 1.5h.2V39h29V20.8c.8 0 1.4-.7 1.4-1.5v-5.6c0-.8-.7-1.5-1.4-1.5ZM25.2 4c1.1-.1 2.5.7 2.7 1.7.2 1.3-1.7 2.6-2.6 3.2-1.2.8-2.5 1.3-3.6 2 .4-1.9 1.2-6.5 3.5-6.9ZM13.8 9c-1.2-.7-3.3-2.2-3.2-3.9 0-1.8 2.8-3.3 4.4-2 1.9 1.8 2.8 5.7 3.5 8.4-1.6-.8-3.1-1.4-4.7-2.5Zm3 28.6H7V20.8h9.7v16.7Zm0-18.3H5.4v-5.5h11.2v5.5Zm5 18.3h-3.6V13.7h3.6v23.8Zm11.2 0h-9.6V20.8H33v16.7H33Zm1.5-18.3H23.4v-5.5h11v5.5Z" fill="#81B3D2"/></svg>